<svg xmlns="http://www.w3.org/2000/svg" width="1280" height="720" viewBox="0 0 1280 720" fill="none">
  <rect width="1280" height="720" rx="28" fill="#0A1424" />
  <rect x="16" y="16" width="232" height="688" rx="28" fill="#101B2E" stroke="#243247" />
  <rect x="272" y="16" width="992" height="84" rx="28" fill="#121F35" stroke="#243247" />
  <rect x="272" y="124" width="520" height="246" rx="28" fill="#132039" stroke="#243247" />
  <rect x="816" y="124" width="448" height="246" rx="28" fill="#132039" stroke="#243247" />
  <rect x="272" y="392" width="992" height="296" rx="28" fill="#0F1A2F" stroke="#243247" />
  <rect x="40" y="40" width="184" height="78" rx="24" fill="#1B2740" />
  <rect x="40" y="150" width="184" height="320" rx="24" fill="#15233B" />
  <rect x="40" y="500" width="184" height="164" rx="24" fill="#15233B" />
  <circle cx="88" cy="79" r="22" fill="#F3F7FB" />
  <rect x="120" y="62" width="72" height="12" rx="6" fill="#F3F7FB" fill-opacity="0.92" />
  <rect x="120" y="84" width="48" height="10" rx="5" fill="#94A3B8" />
  <rect x="69" y="190" width="126" height="18" rx="9" fill="#E6EDF6" fill-opacity="0.12" />
  <rect x="69" y="236" width="126" height="18" rx="9" fill="#E6EDF6" fill-opacity="0.12" />
  <rect x="69" y="282" width="126" height="18" rx="9" fill="#E6EDF6" fill-opacity="0.12" />
  <rect x="69" y="328" width="126" height="18" rx="9" fill="#E6EDF6" fill-opacity="0.12" />
  <rect x="56" y="538" width="152" height="52" rx="18" fill="#E6EDF6" />
  <rect x="302" y="44" width="208" height="28" rx="14" fill="#E6EDF6" fill-opacity="0.16" />
  <rect x="998" y="44" width="224" height="28" rx="14" fill="#E6EDF6" fill-opacity="0.1" />
  <rect x="308" y="154" width="180" height="18" rx="9" fill="#8CF0C4" fill-opacity="0.55" />
  <rect x="308" y="192" width="360" height="22" rx="11" fill="#F3F7FB" fill-opacity="0.85" />
  <rect x="308" y="226" width="296" height="14" rx="7" fill="#94A3B8" />
  <rect x="308" y="286" width="138" height="48" rx="20" fill="#E6EDF6" fill-opacity="0.08" />
  <rect x="466" y="286" width="138" height="48" rx="20" fill="#E6EDF6" fill-opacity="0.08" />
  <rect x="624" y="286" width="138" height="48" rx="20" fill="#E6EDF6" fill-opacity="0.08" />
  <rect x="846" y="156" width="388" height="56" rx="20" fill="#E6EDF6" fill-opacity="0.08" />
  <rect x="846" y="236" width="388" height="56" rx="20" fill="#E6EDF6" fill-opacity="0.08" />
  <rect x="846" y="316" width="388" height="56" rx="20" fill="#E6EDF6" fill-opacity="0.08" />
</svg>